<?xml version="1.0" standalone="no"?><svg xmlns="http://www.w3.org/2000/svg" viewBox="0 0 1440 320"><path fill="#00cba9" fill-opacity="1" d="M0,288L11.4,250.7C22.9,213,46,139,69,133.3C91.4,128,114,192,137,197.3C160,203,183,149,206,133.3C228.6,117,251,139,274,165.3C297.1,192,320,224,343,250.7C365.7,277,389,299,411,309.3C434.3,320,457,320,480,277.3C502.9,235,526,149,549,128C571.4,107,594,149,617,176C640,203,663,213,686,181.3C708.6,149,731,75,754,69.3C777.1,64,800,128,823,160C845.7,192,869,192,891,165.3C914.3,139,937,85,960,58.7C982.9,32,1006,32,1029,42.7C1051.4,53,1074,75,1097,74.7C1120,75,1143,53,1166,80C1188.6,107,1211,181,1234,202.7C1257.1,224,1280,192,1303,186.7C1325.7,181,1349,203,1371,208C1394.3,213,1417,203,1429,197.3L1440,192L1440,320L1428.6,320C1417.1,320,1394,320,1371,320C1348.6,320,1326,320,1303,320C1280,320,1257,320,1234,320C1211.4,320,1189,320,1166,320C1142.9,320,1120,320,1097,320C1074.3,320,1051,320,1029,320C1005.7,320,983,320,960,320C937.1,320,914,320,891,320C868.6,320,846,320,823,320C800,320,777,320,754,320C731.4,320,709,320,686,320C662.9,320,640,320,617,320C594.3,320,571,320,549,320C525.7,320,503,320,480,320C457.1,320,434,320,411,320C388.6,320,366,320,343,320C320,320,297,320,274,320C251.4,320,229,320,206,320C182.9,320,160,320,137,320C114.3,320,91,320,69,320C45.7,320,23,320,11,320L0,320Z"></path></svg>